<?xml version="1.0" encoding="utf-8"?>
<!-- Generator: Adobe Illustrator 24.1.1, SVG Export Plug-In . SVG Version: 6.00 Build 0)  -->
<!DOCTYPE svg PUBLIC "-//W3C//DTD SVG 1.1//EN" "http://www.w3.org/Graphics/SVG/1.1/DTD/svg11.dtd" [
	<!ENTITY ns_extend "http://ns.adobe.com/Extensibility/1.0/">
	<!ENTITY ns_ai "http://ns.adobe.com/AdobeIllustrator/10.0/">
	<!ENTITY ns_graphs "http://ns.adobe.com/Graphs/1.0/">
	<!ENTITY ns_vars "http://ns.adobe.com/Variables/1.0/">
	<!ENTITY ns_imrep "http://ns.adobe.com/ImageReplacement/1.0/">
	<!ENTITY ns_sfw "http://ns.adobe.com/SaveForWeb/1.0/">
	<!ENTITY ns_custom "http://ns.adobe.com/GenericCustomNamespace/1.0/">
	<!ENTITY ns_adobe_xpath "http://ns.adobe.com/XPath/1.0/">
]>
<svg version="1.1" id="Layer_1" xmlns:x="&ns_extend;" xmlns:i="&ns_ai;" xmlns:graph="&ns_graphs;"
	 xmlns="http://www.w3.org/2000/svg" xmlns:xlink="http://www.w3.org/1999/xlink" x="0px" y="0px" viewBox="0 0 150 150"
	 style="enable-background:new 0 0 150 150;" xml:space="preserve">
<style type="text/css">
	.st0{fill:#00A7DC;}
	.st1{fill:#F3767A;}
	.st2{fill:none;stroke:#00A7DC;stroke-width:3;stroke-linejoin:round;stroke-miterlimit:10;}
</style>
<metadata>
	<sfw  xmlns="&ns_sfw;">
		<slices></slices>
		<sliceSourceBounds  bottomLeftOrigin="true" height="139.3" width="149.2" x="0.4" y="-144.9"></sliceSourceBounds>
	</sfw>
</metadata>
<g>
	<path class="st0" d="M102.2,53c-4.7,0-6.2-2.9-8.1-7.7c0,0,0-0.1,0-0.1c-2-6.2-10-10.7-19.1-10.7s-17.1,4.5-19.1,10.7
		c0,0,0,0.1,0,0.1C54,50.1,52.4,53,47.8,53c-4.5,0-8.2-3.7-8.2-8.2c0-0.8,0.6-1.4,1.4-1.4c0.8,0,1.4,0.6,1.4,1.4
		c0,3,2.5,5.5,5.5,5.5c2.8,0,3.6-1.2,5.6-5.9c2.4-7.4,11.3-12.6,21.7-12.6c10.3,0,19.2,5.2,21.7,12.6c1.9,4.8,2.8,5.9,5.6,5.9
		c3,0,5.5-2.5,5.5-5.5c0-0.8,0.6-1.4,1.4-1.4c0.8,0,1.4,0.6,1.4,1.4C110.4,49.3,106.7,53,102.2,53z"/>
	<path class="st0" d="M135.2,65.9h-2.7c0-31.7-25.8-57.5-57.5-57.5c-31.7,0-57.5,25.8-57.5,57.5h-2.7c0-33.2,27-60.2,60.2-60.2
		S135.2,32.7,135.2,65.9z"/>
	<path class="st1" d="M113,57c-4.1-17.7-19.8-30.1-38-30.1c-18.2,0-33.9,12.4-38,30.1l-2.7-0.6c4.4-19,21.1-32.2,40.7-32.2
		s36.2,13.3,40.7,32.2L113,57z"/>
	<path class="st1" d="M26.5,137.3C3.1,137.3,0.4,116,0.4,100s2.7-37.3,26.1-37.3v2.7C10.3,65.4,3.1,76.1,3.1,100
		c0,23.9,7.2,34.6,23.4,34.6V137.3z"/>
	<path class="st0" d="M34.1,144.9c-5,0-9-4-9-9V64.1c0,0,0-0.1,0-0.1c0.1-4.8,4.1-8.8,9-8.8s8.9,3.9,9,8.8c0,0,0,0.1,0,0.1v71.9
		C43.1,140.9,39.1,144.9,34.1,144.9z M27.9,64.2v71.8c0,3.4,2.8,6.2,6.2,6.2c3.4,0,6.2-2.8,6.2-6.2V64.2c0,0,0-0.1,0-0.1
		c0-3.4-2.8-6.2-6.2-6.2C30.7,57.9,27.9,60.7,27.9,64.2C27.9,64.1,27.9,64.1,27.9,64.2z"/>
	<path class="st1" d="M123.5,137.3v-2.7c16.2,0,23.4-10.7,23.4-34.6c0-23.9-7.2-34.6-23.4-34.6v-2.7c23.4,0,26.1,21.3,26.1,37.3
		S146.9,137.3,123.5,137.3z"/>
	<path class="st0" d="M115.9,144.9c-5,0-9-4-9-9V64.1c0,0,0-0.1,0-0.1c0.1-4.9,4.1-8.8,9-8.8c4.9,0,8.9,3.9,9,8.8c0,0,0,0.1,0,0.1
		v71.9C124.9,140.9,120.8,144.9,115.9,144.9z M109.6,64.2v71.8c0,3.4,2.8,6.2,6.2,6.2s6.2-2.8,6.2-6.2V64.2c0,0,0-0.1,0-0.1
		c0-3.4-2.8-6.2-6.2-6.2S109.7,60.7,109.6,64.2C109.6,64.1,109.6,64.1,109.6,64.2z"/>
	<path class="st2" d="M74.2,34.5"/>
</g>
</svg>
