<?xml version="1.0" encoding="utf-8"?>
<!-- Generator: Adobe Illustrator 24.1.1, SVG Export Plug-In . SVG Version: 6.00 Build 0)  -->
<!DOCTYPE svg PUBLIC "-//W3C//DTD SVG 1.1//EN" "http://www.w3.org/Graphics/SVG/1.1/DTD/svg11.dtd" [
	<!ENTITY ns_extend "http://ns.adobe.com/Extensibility/1.0/">
	<!ENTITY ns_ai "http://ns.adobe.com/AdobeIllustrator/10.0/">
	<!ENTITY ns_graphs "http://ns.adobe.com/Graphs/1.0/">
	<!ENTITY ns_vars "http://ns.adobe.com/Variables/1.0/">
	<!ENTITY ns_imrep "http://ns.adobe.com/ImageReplacement/1.0/">
	<!ENTITY ns_sfw "http://ns.adobe.com/SaveForWeb/1.0/">
	<!ENTITY ns_custom "http://ns.adobe.com/GenericCustomNamespace/1.0/">
	<!ENTITY ns_adobe_xpath "http://ns.adobe.com/XPath/1.0/">
]>
<svg version="1.1" id="Layer_1" xmlns:x="&ns_extend;" xmlns:i="&ns_ai;" xmlns:graph="&ns_graphs;"
	 xmlns="http://www.w3.org/2000/svg" xmlns:xlink="http://www.w3.org/1999/xlink" x="0px" y="0px" viewBox="0 0 771 222"
	 style="enable-background:new 0 0 771 222;" xml:space="preserve">
<style type="text/css">
	.st0{fill:#00A7DC;}
	.st1{fill:#00252D;}
	.st2{fill:#F3767A;}
</style>
<metadata>
	<sfw  xmlns="&ns_sfw;">
		<slices></slices>
		<sliceSourceBounds  bottomLeftOrigin="true" height="1057" width="1839" x="-1666" y="-873"></sliceSourceBounds>
	</sfw>
</metadata>
<circle class="st2" cx="179" cy="222" r="160"/>
<path class="st1" d="M534.5,473c-63.2,0-122.6-24.6-167.2-69.3C322.6,359.1,298,299.7,298,236.5s24.6-122.6,69.3-167.2
	C411.9,24.6,471.3,0,534.5,0s122.6,24.6,167.2,69.3c44.7,44.7,69.3,104.1,69.3,167.2s-24.6,122.6-69.3,167.2
	C657.1,448.4,597.7,473,534.5,473z M534.5,76.3c-88.3,0-160.2,71.9-160.2,160.2s71.9,160.2,160.2,160.2s160.2-71.9,160.2-160.2
	S622.8,76.3,534.5,76.3z"/>
<path class="st0" d="M499.5,473c-63.2,0-122.6-24.6-167.2-69.3C287.6,359.1,263,299.7,263,236.5s24.6-122.6,69.3-167.2
	C376.9,24.6,436.3,0,499.5,0s122.6,24.6,167.2,69.3c44.7,44.7,69.3,104.1,69.3,167.2s-24.6,122.6-69.3,167.2
	C622.1,448.4,562.7,473,499.5,473z M499.5,76.3c-88.3,0-160.2,71.9-160.2,160.2s71.9,160.2,160.2,160.2s160.2-71.9,160.2-160.2
	S587.8,76.3,499.5,76.3z"/>
<g>
	<g>
		<circle class="st2" cx="617.3" cy="30.7" r="4.2"/>
		<circle class="st2" cx="633.7" cy="30.7" r="4.2"/>
		<circle class="st2" cx="650" cy="30.7" r="4.2"/>
		<circle class="st2" cx="666.4" cy="30.7" r="4.2"/>
		<circle class="st2" cx="682.7" cy="30.7" r="4.2"/>
		<circle class="st2" cx="699.1" cy="30.7" r="4.2"/>
		<circle class="st2" cx="715.5" cy="30.7" r="4.2"/>
		<circle class="st2" cx="731.8" cy="30.7" r="4.2"/>
	</g>
	<g>
		<circle class="st2" cx="617.3" cy="43.6" r="4.2"/>
		<circle class="st2" cx="633.7" cy="43.6" r="4.2"/>
		<circle class="st2" cx="650" cy="43.6" r="4.2"/>
		<circle class="st2" cx="666.4" cy="43.6" r="4.2"/>
		<circle class="st2" cx="682.7" cy="43.6" r="4.2"/>
		<circle class="st2" cx="699.1" cy="43.6" r="4.2"/>
		<circle class="st2" cx="715.5" cy="43.6" r="4.2"/>
		<circle class="st2" cx="731.8" cy="43.6" r="4.2"/>
	</g>
	<g>
		<g>
			<circle class="st2" cx="617.3" cy="56.5" r="4.2"/>
			<circle class="st2" cx="633.7" cy="56.5" r="4.2"/>
			<circle class="st2" cx="650" cy="56.5" r="4.2"/>
			<circle class="st2" cx="666.4" cy="56.5" r="4.2"/>
			<circle class="st2" cx="682.7" cy="56.5" r="4.2"/>
			<circle class="st2" cx="699.1" cy="56.5" r="4.2"/>
			<circle class="st2" cx="715.5" cy="56.5" r="4.2"/>
			<circle class="st2" cx="731.8" cy="56.5" r="4.2"/>
		</g>
	</g>
	<g>
		<g>
			<circle class="st2" cx="617.3" cy="69.5" r="4.2"/>
			<circle class="st2" cx="633.7" cy="69.5" r="4.2"/>
			<circle class="st2" cx="650" cy="69.5" r="4.2"/>
			<circle class="st2" cx="666.4" cy="69.5" r="4.2"/>
			<circle class="st2" cx="682.7" cy="69.5" r="4.2"/>
			<circle class="st2" cx="699.1" cy="69.5" r="4.2"/>
			<circle class="st2" cx="715.5" cy="69.5" r="4.2"/>
			<circle class="st2" cx="731.8" cy="69.5" r="4.2"/>
		</g>
	</g>
	<g>
		<circle class="st2" cx="617.3" cy="82.4" r="4.2"/>
		<circle class="st2" cx="633.7" cy="82.4" r="4.2"/>
		<circle class="st2" cx="650" cy="82.4" r="4.2"/>
		<circle class="st2" cx="666.4" cy="82.4" r="4.2"/>
		<circle class="st2" cx="682.7" cy="82.4" r="4.2"/>
		<circle class="st2" cx="699.1" cy="82.4" r="4.2"/>
		<circle class="st2" cx="715.5" cy="82.4" r="4.2"/>
		<circle class="st2" cx="731.8" cy="82.4" r="4.2"/>
	</g>
	<g>
		<circle class="st2" cx="617.3" cy="95.3" r="4.2"/>
		<circle class="st2" cx="633.7" cy="95.3" r="4.2"/>
		<circle class="st2" cx="650" cy="95.3" r="4.2"/>
		<circle class="st2" cx="666.4" cy="95.3" r="4.2"/>
		<circle class="st2" cx="682.7" cy="95.3" r="4.2"/>
		<circle class="st2" cx="699.1" cy="95.3" r="4.2"/>
		<circle class="st2" cx="715.5" cy="95.3" r="4.2"/>
		<circle class="st2" cx="731.8" cy="95.3" r="4.2"/>
	</g>
	<g>
		<g>
			<circle class="st2" cx="617.3" cy="108.3" r="4.2"/>
			<circle class="st2" cx="633.7" cy="108.3" r="4.2"/>
			<circle class="st2" cx="650" cy="108.3" r="4.2"/>
			<circle class="st2" cx="666.4" cy="108.3" r="4.2"/>
			<circle class="st2" cx="682.7" cy="108.3" r="4.2"/>
			<circle class="st2" cx="699.1" cy="108.3" r="4.2"/>
			<circle class="st2" cx="715.5" cy="108.3" r="4.2"/>
			<circle class="st2" cx="731.8" cy="108.3" r="4.2"/>
		</g>
	</g>
	<g>
		<g>
			<circle class="st2" cx="617.3" cy="121.2" r="4.2"/>
			<circle class="st2" cx="633.7" cy="121.2" r="4.2"/>
			<circle class="st2" cx="650" cy="121.2" r="4.2"/>
			<circle class="st2" cx="666.4" cy="121.2" r="4.2"/>
			<circle class="st2" cx="682.7" cy="121.2" r="4.2"/>
			<circle class="st2" cx="699.1" cy="121.2" r="4.2"/>
			<circle class="st2" cx="715.5" cy="121.2" r="4.2"/>
			<circle class="st2" cx="731.8" cy="121.2" r="4.2"/>
		</g>
	</g>
</g>
<g>
	<rect x="0" y="154.5" class="st1" width="179.5" height="3"/>
	<rect x="0" y="167.5" class="st1" width="179.5" height="3"/>
	<rect x="0" y="180.5" class="st1" width="179.5" height="3"/>
	<rect x="0" y="193.5" class="st1" width="179.5" height="3"/>
	<rect x="0" y="206.5" class="st1" width="179.5" height="3"/>
	<rect x="0" y="219.5" class="st1" width="179.5" height="3"/>
</g>
</svg>
