<?xml version="1.0" encoding="utf-8"?>
<!-- Generator: Adobe Illustrator 24.1.1, SVG Export Plug-In . SVG Version: 6.00 Build 0)  -->
<!DOCTYPE svg PUBLIC "-//W3C//DTD SVG 1.1//EN" "http://www.w3.org/Graphics/SVG/1.1/DTD/svg11.dtd" [
	<!ENTITY ns_extend "http://ns.adobe.com/Extensibility/1.0/">
	<!ENTITY ns_ai "http://ns.adobe.com/AdobeIllustrator/10.0/">
	<!ENTITY ns_graphs "http://ns.adobe.com/Graphs/1.0/">
	<!ENTITY ns_vars "http://ns.adobe.com/Variables/1.0/">
	<!ENTITY ns_imrep "http://ns.adobe.com/ImageReplacement/1.0/">
	<!ENTITY ns_sfw "http://ns.adobe.com/SaveForWeb/1.0/">
	<!ENTITY ns_custom "http://ns.adobe.com/GenericCustomNamespace/1.0/">
	<!ENTITY ns_adobe_xpath "http://ns.adobe.com/XPath/1.0/">
]>
<svg version="1.1" id="Layer_1" xmlns:x="&ns_extend;" xmlns:i="&ns_ai;" xmlns:graph="&ns_graphs;"
	 xmlns="http://www.w3.org/2000/svg" xmlns:xlink="http://www.w3.org/1999/xlink" x="0px" y="0px" viewBox="0 0 638 830.6"
	 style="enable-background:new 0 0 638 830.6;" xml:space="preserve">
<style type="text/css">
	.st0{fill:#005570;}
	.st1{fill:#F3767A;}
	.st2{fill:#00A7DC;}
</style>
<metadata>
	<sfw  xmlns="&ns_sfw;">
		<slices></slices>
		<sliceSourceBounds  bottomLeftOrigin="true" height="830.6" width="638" x="-403" y="-592.2"></sliceSourceBounds>
	</sfw>
</metadata>
<g id="Grupo_48" transform="translate(289.861 -127.608)">
	<rect id="Retângulo_30" x="29.1" y="608.3" class="st0" width="283.2" height="349.9"/>
	<path id="Subtração_1" class="st1" d="M-289.9,457.3c0-21.5,2.2-42.9,6.5-64c4.2-20.4,10.4-40.4,18.6-59.6
		c8-18.9,17.9-37,29.4-54c11.5-16.9,24.5-32.6,39-47c14.5-14.4,30.3-27.4,47.2-38.8c17.1-11.5,35.2-21.3,54.2-29.3
		c19.3-8.1,39.4-14.3,59.9-18.5c42.4-8.6,86.2-8.6,128.6,0c20.5,4.2,40.6,10.4,59.9,18.5c19,8,37.1,17.8,54.2,29.3
		c16.9,11.4,32.7,24.4,47.2,38.8c14.5,14.4,27.5,30.1,39,47c11.5,17,21.4,35.1,29.4,54c8.2,19.2,14.4,39.2,18.6,59.6
		c8.6,42.2,8.6,85.8,0,128c-4.2,20.4-10.4,40.4-18.6,59.6c-8,18.9-17.9,37-29.4,53.9c-11.5,16.9-24.5,32.6-39,47
		c-14.5,14.4-30.3,27.4-47.2,38.8c-17.1,11.5-35.2,21.3-54.2,29.3C134,758,114,764.2,93.4,768.4C51,777,7.3,777-35.1,768.4
		c-20.5-4.2-40.6-10.4-59.9-18.5c-19-8-37.1-17.8-54.2-29.3c-16.9-11.4-32.7-24.4-47.2-38.8c-14.5-14.4-27.5-30.1-39-47
		c-11.5-17-21.4-35.1-29.4-54c-8.2-19.2-14.4-39.2-18.6-59.6C-287.7,500.2-289.9,478.8-289.9,457.3z M233.4,457.3
		c0-111.9-91.6-202.9-204.3-202.9s-204.3,91-204.3,202.9s91.6,202.9,204.3,202.9S233.4,569.1,233.4,457.3L233.4,457.3z"/>
	<path id="Caminho_9" class="st2" d="M188.4,127.6c-88,0-159.3,71.3-159.3,159.3s71.3,159.3,159.3,159.3s159.3-71.3,159.3-159.3
		S276.4,127.6,188.4,127.6L188.4,127.6z M188.4,394.1c-59.2,0-107.2-48-107.2-107.2s48-107.2,107.2-107.2s107.2,48,107.2,107.2
		C295.7,346.1,247.7,394.1,188.4,394.1L188.4,394.1z"/>
	<g id="Grupo_33_1_" transform="translate(30.294 127.608)">
		<rect id="Retângulo_24-2_1_" x="0" y="50.9" class="st0" width="140.4" height="2.3"/>
		<rect id="Retângulo_25-2_1_" x="0" y="40.7" class="st0" width="140.4" height="2.3"/>
		<rect id="Retângulo_26-2_1_" x="0" y="30.5" class="st0" width="140.4" height="2.3"/>
		<rect id="Retângulo_27-2_1_" x="0" y="20.3" class="st0" width="140.4" height="2.3"/>
		<rect id="Retângulo_28-2_1_" x="0" y="10.2" class="st0" width="140.4" height="2.3"/>
		<rect id="Retângulo_29-2_1_" x="0" class="st0" width="140.4" height="2.3"/>
	</g>
</g>
</svg>
