<?xml version="1.0" encoding="utf-8"?>
<!-- Generator: Adobe Illustrator 24.1.1, SVG Export Plug-In . SVG Version: 6.00 Build 0)  -->
<!DOCTYPE svg PUBLIC "-//W3C//DTD SVG 1.1//EN" "http://www.w3.org/Graphics/SVG/1.1/DTD/svg11.dtd" [
	<!ENTITY ns_extend "http://ns.adobe.com/Extensibility/1.0/">
	<!ENTITY ns_ai "http://ns.adobe.com/AdobeIllustrator/10.0/">
	<!ENTITY ns_graphs "http://ns.adobe.com/Graphs/1.0/">
	<!ENTITY ns_vars "http://ns.adobe.com/Variables/1.0/">
	<!ENTITY ns_imrep "http://ns.adobe.com/ImageReplacement/1.0/">
	<!ENTITY ns_sfw "http://ns.adobe.com/SaveForWeb/1.0/">
	<!ENTITY ns_custom "http://ns.adobe.com/GenericCustomNamespace/1.0/">
	<!ENTITY ns_adobe_xpath "http://ns.adobe.com/XPath/1.0/">
]>
<svg version="1.1" id="Layer_1" xmlns:x="&ns_extend;" xmlns:i="&ns_ai;" xmlns:graph="&ns_graphs;"
	 xmlns="http://www.w3.org/2000/svg" xmlns:xlink="http://www.w3.org/1999/xlink" x="0px" y="0px" viewBox="0 0 217 474.6"
	 style="enable-background:new 0 0 217 474.6;" xml:space="preserve">
<style type="text/css">
	.st0{fill:#005570;}
	.st1{fill:#F3767A;}
	.st2{fill:#00A7DC;}
</style>
<metadata>
	<sfw  xmlns="&ns_sfw;">
		<slices></slices>
		<sliceSourceBounds  bottomLeftOrigin="true" height="474.6" width="359.1" x="-452.5" y="-482.8"></sliceSourceBounds>
	</sfw>
</metadata>
<g id="element-intro-righ" transform="translate(336.283 -73.574) rotate(90)">
	
		<rect id="Retângulo_30" x="68.1" y="216.6" transform="matrix(2.535182e-06 1 -1 2.535182e-06 404.186 143.0337)" class="st0" width="125" height="114"/>
	<path id="Subtração_1" class="st1" d="M187.1,439.1c-7.7,0-15.3-0.8-22.9-2.3c-7.3-1.5-14.4-3.7-21.3-6.6
		c-6.8-2.9-13.2-6.4-19.3-10.5c-6-4.1-11.7-8.8-16.8-13.9c-5.1-5.2-9.8-10.8-13.9-16.9c-4.1-6.1-7.6-12.6-10.5-19.4
		c-2.9-6.9-5.1-14.1-6.6-21.4c-1.5-7.6-2.3-15.3-2.3-23c0-7.7,0.8-15.4,2.3-23c1.5-7.3,3.7-14.5,6.6-21.4
		c2.9-6.8,6.4-13.3,10.5-19.4c4.1-6.1,8.7-11.7,13.9-16.9c5.1-5.2,10.8-9.8,16.8-13.9c6.1-4.1,12.5-7.6,19.3-10.5
		c6.9-2.9,14-5.1,21.3-6.6c7.5-1.5,15.2-2.3,22.9-2.3c7.7,0,15.3,0.8,22.9,2.3c7.3,1.5,14.4,3.7,21.3,6.6
		c6.8,2.9,13.2,6.4,19.3,10.5c6,4.1,11.7,8.8,16.8,13.9c5.1,5.2,9.8,10.8,13.9,16.9c4.1,6.1,7.6,12.6,10.5,19.4
		c2.9,6.9,5.1,14.1,6.6,21.4c1.5,7.6,2.3,15.3,2.3,23c0,7.7-0.8,15.4-2.3,23c-1.5,7.3-3.7,14.5-6.6,21.4
		c-2.9,6.8-6.4,13.3-10.5,19.4c-4.1,6.1-8.7,11.7-13.9,16.9c-5.1,5.2-10.8,9.8-16.8,13.9c-6.1,4.1-12.5,7.6-19.3,10.5
		c-6.9,2.9-14,5.1-21.3,6.6C202.4,438.3,194.8,439.1,187.1,439.1z M187.1,252.1c-40,0-72.5,32.7-72.5,73s32.5,73,72.5,73
		s72.5-32.7,72.5-73S227.1,252.1,187.1,252.1L187.1,252.1z"/>
	<path id="Caminho_7" class="st0" d="M380,503.8c-92.8,0-168.1-75.3-168.1-168.1c0-92.9,75.2-168.2,168.1-168.2
		s168.2,75.2,168.2,168.1c0,44.6-17.7,87.4-49.3,119C467.4,486.1,424.6,503.9,380,503.8z M380,221.7c-62.9,0-113.9,51-113.9,113.9
		s51,113.9,113.9,113.9s113.9-51,113.9-113.9C493.8,272.7,442.9,221.8,380,221.7z"/>
	<path id="Caminho_8" class="st2" d="M355.1,503.8c-92.8,0-168.1-75.3-168.1-168.1c0-92.9,75.2-168.2,168.1-168.2
		s168.2,75.2,168.2,168.1c0,44.6-17.7,87.4-49.3,119C442.6,486.1,399.7,503.9,355.1,503.8z M355.1,221.7
		c-62.9,0-113.9,51-113.9,113.9s51,113.9,113.9,113.9S469,398.5,469,335.6C468.9,272.7,418,221.8,355.1,221.7z"/>
	<g id="Grupo_32" transform="translate(522.981 -22.793) rotate(90)">
		<rect id="Retângulo_24" x="167.5" y="0" class="st1" width="127.6" height="2.1"/>
		<rect id="Retângulo_25" x="167.5" y="9.2" class="st1" width="127.6" height="2.1"/>
		<rect id="Retângulo_26" x="167.5" y="18.5" class="st1" width="127.6" height="2.1"/>
		<rect id="Retângulo_27" x="167.5" y="27.7" class="st1" width="127.6" height="2.1"/>
		<rect id="Retângulo_28" x="167.5" y="37" class="st1" width="127.6" height="2.1"/>
		<rect id="Retângulo_29" x="167.5" y="46.2" class="st1" width="127.6" height="2.1"/>
	</g>
	<g id="Grupo_33" transform="translate(468.981 -22.793) rotate(90)">
		<rect id="Retângulo_24-2" x="167.5" y="0" class="st1" width="127.6" height="2.1"/>
		<rect id="Retângulo_25-2" x="167.5" y="9.2" class="st1" width="127.6" height="2.1"/>
		<rect id="Retângulo_26-2" x="167.5" y="18.5" class="st1" width="127.6" height="2.1"/>
		<rect id="Retângulo_27-2" x="167.5" y="27.7" class="st1" width="127.6" height="2.1"/>
		<rect id="Retângulo_28-2" x="167.5" y="37" class="st1" width="127.6" height="2.1"/>
		<rect id="Retângulo_29-2" x="167.5" y="46.2" class="st1" width="127.6" height="2.1"/>
	</g>
</g>
</svg>
