<?xml version="1.0" encoding="utf-8"?>
<!-- Generator: Adobe Illustrator 24.1.1, SVG Export Plug-In . SVG Version: 6.00 Build 0)  -->
<!DOCTYPE svg PUBLIC "-//W3C//DTD SVG 1.1//EN" "http://www.w3.org/Graphics/SVG/1.1/DTD/svg11.dtd" [
	<!ENTITY ns_extend "http://ns.adobe.com/Extensibility/1.0/">
	<!ENTITY ns_ai "http://ns.adobe.com/AdobeIllustrator/10.0/">
	<!ENTITY ns_graphs "http://ns.adobe.com/Graphs/1.0/">
	<!ENTITY ns_vars "http://ns.adobe.com/Variables/1.0/">
	<!ENTITY ns_imrep "http://ns.adobe.com/ImageReplacement/1.0/">
	<!ENTITY ns_sfw "http://ns.adobe.com/SaveForWeb/1.0/">
	<!ENTITY ns_custom "http://ns.adobe.com/GenericCustomNamespace/1.0/">
	<!ENTITY ns_adobe_xpath "http://ns.adobe.com/XPath/1.0/">
]>
<svg version="1.1" id="Layer_1" xmlns:x="&ns_extend;" xmlns:i="&ns_ai;" xmlns:graph="&ns_graphs;"
	 xmlns="http://www.w3.org/2000/svg" xmlns:xlink="http://www.w3.org/1999/xlink" x="0px" y="0px" viewBox="0 0 537.5 436.5"
	 style="enable-background:new 0 0 537.5 436.5;" xml:space="preserve">
<style type="text/css">
	.st0{fill:#F3767A;}
	.st1{fill:#00A7DC;}
</style>
<metadata>
	<sfw  xmlns="&ns_sfw;">
		<slices></slices>
		<sliceSourceBounds  bottomLeftOrigin="true" height="673.9" width="721.9" x="119.5" y="-720.2"></sliceSourceBounds>
	</sfw>
</metadata>
<circle class="st0" cx="163.9" cy="438.4" r="163.9"/>
<path id="Caminho_8" class="st1" d="M48,336.9C48,150.9,198.9,0.1,384.9,0c186.1,0,337,150.8,337,336.9s-150.8,337-336.9,337
	c-89.4,0-175.2-35.5-238.4-98.7C83.2,512.2,47.7,426.4,48,336.9z M613.1,336.9c0-126.1-102.2-228.3-228.3-228.3
	S156.6,210.9,156.6,336.9s102.2,228.3,228.3,228.3C510.9,565,613,462.9,613.1,336.9z"/>
<g>
	<g>
		<circle class="st0" cx="418.8" cy="4.2" r="4.2"/>
		<circle class="st0" cx="435.2" cy="4.2" r="4.2"/>
		<circle class="st0" cx="451.5" cy="4.2" r="4.2"/>
		<circle class="st0" cx="467.9" cy="4.2" r="4.2"/>
		<circle class="st0" cx="484.3" cy="4.2" r="4.2"/>
		<circle class="st0" cx="500.6" cy="4.2" r="4.2"/>
		<circle class="st0" cx="517" cy="4.2" r="4.2"/>
		<circle class="st0" cx="533.3" cy="4.2" r="4.2"/>
	</g>
	<g>
		<circle class="st0" cx="418.8" cy="17.1" r="4.2"/>
		<circle class="st0" cx="435.2" cy="17.1" r="4.2"/>
		<circle class="st0" cx="451.5" cy="17.1" r="4.2"/>
		<circle class="st0" cx="467.9" cy="17.1" r="4.2"/>
		<circle class="st0" cx="484.3" cy="17.1" r="4.2"/>
		<circle class="st0" cx="500.6" cy="17.1" r="4.2"/>
		<circle class="st0" cx="517" cy="17.1" r="4.2"/>
		<circle class="st0" cx="533.3" cy="17.1" r="4.2"/>
	</g>
	<g>
		<g>
			<circle class="st0" cx="418.8" cy="30" r="4.2"/>
			<circle class="st0" cx="435.2" cy="30" r="4.2"/>
			<circle class="st0" cx="451.5" cy="30" r="4.2"/>
			<circle class="st0" cx="467.9" cy="30" r="4.2"/>
			<circle class="st0" cx="484.3" cy="30" r="4.2"/>
			<circle class="st0" cx="500.6" cy="30" r="4.2"/>
			<circle class="st0" cx="517" cy="30" r="4.2"/>
			<circle class="st0" cx="533.3" cy="30" r="4.2"/>
		</g>
	</g>
	<g>
		<g>
			<circle class="st0" cx="418.8" cy="43" r="4.2"/>
			<circle class="st0" cx="435.2" cy="43" r="4.2"/>
			<circle class="st0" cx="451.5" cy="43" r="4.2"/>
			<circle class="st0" cx="467.9" cy="43" r="4.2"/>
			<circle class="st0" cx="484.3" cy="43" r="4.2"/>
			<circle class="st0" cx="500.6" cy="43" r="4.2"/>
			<circle class="st0" cx="517" cy="43" r="4.2"/>
			<circle class="st0" cx="533.3" cy="43" r="4.2"/>
		</g>
	</g>
	<g>
		<circle class="st0" cx="418.8" cy="55.9" r="4.2"/>
		<circle class="st0" cx="435.2" cy="55.9" r="4.2"/>
		<circle class="st0" cx="451.5" cy="55.9" r="4.2"/>
		<circle class="st0" cx="467.9" cy="55.9" r="4.2"/>
		<circle class="st0" cx="484.3" cy="55.9" r="4.2"/>
		<circle class="st0" cx="500.6" cy="55.9" r="4.2"/>
		<circle class="st0" cx="517" cy="55.9" r="4.2"/>
		<circle class="st0" cx="533.3" cy="55.9" r="4.2"/>
	</g>
	<g>
		<circle class="st0" cx="418.8" cy="68.8" r="4.2"/>
		<circle class="st0" cx="435.2" cy="68.8" r="4.2"/>
		<circle class="st0" cx="451.5" cy="68.8" r="4.2"/>
		<circle class="st0" cx="467.9" cy="68.8" r="4.2"/>
		<circle class="st0" cx="484.3" cy="68.8" r="4.2"/>
		<circle class="st0" cx="500.6" cy="68.8" r="4.2"/>
		<circle class="st0" cx="517" cy="68.8" r="4.2"/>
		<circle class="st0" cx="533.3" cy="68.8" r="4.2"/>
	</g>
	<g>
		<g>
			<circle class="st0" cx="418.8" cy="81.8" r="4.2"/>
			<circle class="st0" cx="435.2" cy="81.8" r="4.2"/>
			<circle class="st0" cx="451.5" cy="81.8" r="4.2"/>
			<circle class="st0" cx="467.9" cy="81.8" r="4.2"/>
			<circle class="st0" cx="484.3" cy="81.8" r="4.2"/>
			<circle class="st0" cx="500.6" cy="81.8" r="4.2"/>
			<circle class="st0" cx="517" cy="81.8" r="4.2"/>
			<circle class="st0" cx="533.3" cy="81.8" r="4.2"/>
		</g>
	</g>
	<g>
		<g>
			<circle class="st0" cx="418.8" cy="94.7" r="4.2"/>
			<circle class="st0" cx="435.2" cy="94.7" r="4.2"/>
			<circle class="st0" cx="451.5" cy="94.7" r="4.2"/>
			<circle class="st0" cx="467.9" cy="94.7" r="4.2"/>
			<circle class="st0" cx="484.3" cy="94.7" r="4.2"/>
			<circle class="st0" cx="500.6" cy="94.7" r="4.2"/>
			<circle class="st0" cx="517" cy="94.7" r="4.2"/>
			<circle class="st0" cx="533.3" cy="94.7" r="4.2"/>
		</g>
	</g>
</g>
</svg>
