<?xml version="1.0" encoding="utf-8"?>
<!-- Generator: Adobe Illustrator 24.1.1, SVG Export Plug-In . SVG Version: 6.00 Build 0)  -->
<!DOCTYPE svg PUBLIC "-//W3C//DTD SVG 1.1//EN" "http://www.w3.org/Graphics/SVG/1.1/DTD/svg11.dtd" [
	<!ENTITY ns_extend "http://ns.adobe.com/Extensibility/1.0/">
	<!ENTITY ns_ai "http://ns.adobe.com/AdobeIllustrator/10.0/">
	<!ENTITY ns_graphs "http://ns.adobe.com/Graphs/1.0/">
	<!ENTITY ns_vars "http://ns.adobe.com/Variables/1.0/">
	<!ENTITY ns_imrep "http://ns.adobe.com/ImageReplacement/1.0/">
	<!ENTITY ns_sfw "http://ns.adobe.com/SaveForWeb/1.0/">
	<!ENTITY ns_custom "http://ns.adobe.com/GenericCustomNamespace/1.0/">
	<!ENTITY ns_adobe_xpath "http://ns.adobe.com/XPath/1.0/">
]>
<svg version="1.1" id="Layer_1" xmlns:x="&ns_extend;" xmlns:i="&ns_ai;" xmlns:graph="&ns_graphs;"
	 xmlns="http://www.w3.org/2000/svg" xmlns:xlink="http://www.w3.org/1999/xlink" x="0px" y="0px" viewBox="0 0 217 473"
	 style="enable-background:new 0 0 217 473;" xml:space="preserve">
<style type="text/css">
	.st0{fill:#00A7DC;}
	.st1{fill:#00252D;}
	.st2{fill:#F3767A;}
</style>
<metadata>
	<sfw  xmlns="&ns_sfw;">
		<slices></slices>
		<sliceSourceBounds  bottomLeftOrigin="true" height="473.3" width="473" x="-541" y="-482.3"></sliceSourceBounds>
	</sfw>
</metadata>
<rect x="-19.5" y="236.5" class="st0" width="236.5" height="236.5"/>
<path class="st1" d="M-19.5,473c-63.2,0-122.6-24.6-167.2-69.3c-44.7-44.7-69.3-104.1-69.3-167.2s24.6-122.6,69.3-167.2
	C-142.1,24.6-82.7,0-19.5,0s122.6,24.6,167.2,69.3c44.7,44.7,69.3,104.1,69.3,167.2s-24.6,122.6-69.3,167.2
	C103.1,448.4,43.7,473-19.5,473z M-19.5,76.3c-88.3,0-160.2,71.9-160.2,160.2s71.9,160.2,160.2,160.2s160.2-71.9,160.2-160.2
	S68.8,76.3-19.5,76.3z"/>
<g>
	<circle class="st2" cx="98.3" cy="378.7" r="4.2"/>
	<circle class="st2" cx="114.7" cy="378.7" r="4.2"/>
	<circle class="st2" cx="131" cy="378.7" r="4.2"/>
	<circle class="st2" cx="147.4" cy="378.7" r="4.2"/>
	<circle class="st2" cx="163.7" cy="378.7" r="4.2"/>
	<circle class="st2" cx="180.1" cy="378.7" r="4.2"/>
	<circle class="st2" cx="196.5" cy="378.7" r="4.2"/>
	<circle class="st2" cx="212.8" cy="378.7" r="4.2"/>
</g>
<g>
	<circle class="st2" cx="98.3" cy="391.6" r="4.2"/>
	<circle class="st2" cx="114.7" cy="391.6" r="4.2"/>
	<circle class="st2" cx="131" cy="391.6" r="4.2"/>
	<circle class="st2" cx="147.4" cy="391.6" r="4.2"/>
	<circle class="st2" cx="163.7" cy="391.6" r="4.2"/>
	<circle class="st2" cx="180.1" cy="391.6" r="4.2"/>
	<circle class="st2" cx="196.5" cy="391.6" r="4.2"/>
	<circle class="st2" cx="212.8" cy="391.6" r="4.2"/>
</g>
<g>
	<g>
		<circle class="st2" cx="98.3" cy="404.5" r="4.2"/>
		<circle class="st2" cx="114.7" cy="404.5" r="4.2"/>
		<circle class="st2" cx="131" cy="404.5" r="4.2"/>
		<circle class="st2" cx="147.4" cy="404.5" r="4.2"/>
		<circle class="st2" cx="163.7" cy="404.5" r="4.2"/>
		<circle class="st2" cx="180.1" cy="404.5" r="4.2"/>
		<circle class="st2" cx="196.5" cy="404.5" r="4.2"/>
		<circle class="st2" cx="212.8" cy="404.5" r="4.2"/>
	</g>
</g>
<g>
	<g>
		<circle class="st2" cx="98.3" cy="417.5" r="4.2"/>
		<circle class="st2" cx="114.7" cy="417.5" r="4.2"/>
		<circle class="st2" cx="131" cy="417.5" r="4.2"/>
		<circle class="st2" cx="147.4" cy="417.5" r="4.2"/>
		<circle class="st2" cx="163.7" cy="417.5" r="4.2"/>
		<circle class="st2" cx="180.1" cy="417.5" r="4.2"/>
		<circle class="st2" cx="196.5" cy="417.5" r="4.2"/>
		<circle class="st2" cx="212.8" cy="417.5" r="4.2"/>
	</g>
</g>
<g>
	<circle class="st2" cx="98.3" cy="430.4" r="4.2"/>
	<circle class="st2" cx="114.7" cy="430.4" r="4.2"/>
	<circle class="st2" cx="131" cy="430.4" r="4.2"/>
	<circle class="st2" cx="147.4" cy="430.4" r="4.2"/>
	<circle class="st2" cx="163.7" cy="430.4" r="4.2"/>
	<circle class="st2" cx="180.1" cy="430.4" r="4.2"/>
	<circle class="st2" cx="196.5" cy="430.4" r="4.2"/>
	<circle class="st2" cx="212.8" cy="430.4" r="4.2"/>
</g>
<g>
	<circle class="st2" cx="98.3" cy="443.3" r="4.2"/>
	<circle class="st2" cx="114.7" cy="443.3" r="4.2"/>
	<circle class="st2" cx="131" cy="443.3" r="4.2"/>
	<circle class="st2" cx="147.4" cy="443.3" r="4.2"/>
	<circle class="st2" cx="163.7" cy="443.3" r="4.2"/>
	<circle class="st2" cx="180.1" cy="443.3" r="4.2"/>
	<circle class="st2" cx="196.5" cy="443.3" r="4.2"/>
	<circle class="st2" cx="212.8" cy="443.3" r="4.2"/>
</g>
<g>
	<g>
		<circle class="st2" cx="98.3" cy="456.3" r="4.2"/>
		<circle class="st2" cx="114.7" cy="456.3" r="4.2"/>
		<circle class="st2" cx="131" cy="456.3" r="4.2"/>
		<circle class="st2" cx="147.4" cy="456.3" r="4.2"/>
		<circle class="st2" cx="163.7" cy="456.3" r="4.2"/>
		<circle class="st2" cx="180.1" cy="456.3" r="4.2"/>
		<circle class="st2" cx="196.5" cy="456.3" r="4.2"/>
		<circle class="st2" cx="212.8" cy="456.3" r="4.2"/>
	</g>
</g>
<g>
	<g>
		<circle class="st2" cx="98.3" cy="469.2" r="4.2"/>
		<circle class="st2" cx="114.7" cy="469.2" r="4.2"/>
		<circle class="st2" cx="131" cy="469.2" r="4.2"/>
		<circle class="st2" cx="147.4" cy="469.2" r="4.2"/>
		<circle class="st2" cx="163.7" cy="469.2" r="4.2"/>
		<circle class="st2" cx="180.1" cy="469.2" r="4.2"/>
		<circle class="st2" cx="196.5" cy="469.2" r="4.2"/>
		<circle class="st2" cx="212.8" cy="469.2" r="4.2"/>
	</g>
</g>
</svg>
