<?xml version="1.0" encoding="utf-8"?>
<!-- Generator: Adobe Illustrator 24.1.1, SVG Export Plug-In . SVG Version: 6.00 Build 0)  -->
<!DOCTYPE svg PUBLIC "-//W3C//DTD SVG 1.1//EN" "http://www.w3.org/Graphics/SVG/1.1/DTD/svg11.dtd" [
	<!ENTITY ns_extend "http://ns.adobe.com/Extensibility/1.0/">
	<!ENTITY ns_ai "http://ns.adobe.com/AdobeIllustrator/10.0/">
	<!ENTITY ns_graphs "http://ns.adobe.com/Graphs/1.0/">
	<!ENTITY ns_vars "http://ns.adobe.com/Variables/1.0/">
	<!ENTITY ns_imrep "http://ns.adobe.com/ImageReplacement/1.0/">
	<!ENTITY ns_sfw "http://ns.adobe.com/SaveForWeb/1.0/">
	<!ENTITY ns_custom "http://ns.adobe.com/GenericCustomNamespace/1.0/">
	<!ENTITY ns_adobe_xpath "http://ns.adobe.com/XPath/1.0/">
]>
<svg version="1.1" id="Layer_1" xmlns:x="&ns_extend;" xmlns:i="&ns_ai;" xmlns:graph="&ns_graphs;"
	 xmlns="http://www.w3.org/2000/svg" xmlns:xlink="http://www.w3.org/1999/xlink" x="0px" y="0px" viewBox="0 0 986.3 409.1"
	 style="enable-background:new 0 0 986.3 409.1;" xml:space="preserve">
<style type="text/css">
	.st0{fill:#00252D;}
	.st1{fill:#00A7DC;}
	.st2{fill:#F3767A;}
</style>
<metadata>
	<sfw  xmlns="&ns_sfw;">
		<slices></slices>
		<sliceSourceBounds  bottomLeftOrigin="true" height="639.5" width="986.3" x="-355.9" y="-599.9"></sliceSourceBounds>
	</sfw>
</metadata>
<g>
	<rect y="320.4" class="st0" width="345.3" height="319"/>
	<circle class="st0" cx="763.6" cy="416.8" r="222.7"/>
	<path id="Subtração_1_1_" class="st1" d="M345.6,639.5c-21.5,0-42.9-2.2-64-6.5c-20.4-4.2-40.4-10.4-59.6-18.6
		c-18.9-8-37-17.9-54-29.4c-16.9-11.5-32.6-24.5-47-39c-14.4-14.5-27.4-30.3-38.8-47.2c-11.5-17.1-21.3-35.2-29.3-54.2
		c-8.1-19.3-14.3-39.4-18.5-59.9c-8.6-42.4-8.6-86.2,0-128.6c4.2-20.5,10.4-40.6,18.5-59.9c8-19,17.8-37.1,29.3-54.2
		c11.4-16.9,24.4-32.7,38.8-47.2c14.4-14.5,30.1-27.5,47-39c17-11.5,35.1-21.4,54-29.4c19.2-8.2,39.2-14.4,59.6-18.6
		c42.2-8.6,85.8-8.6,128,0c20.4,4.2,40.4,10.4,59.6,18.6c18.9,8,37,17.9,53.9,29.4c16.9,11.5,32.6,24.5,47,39
		c14.4,14.5,27.4,30.3,38.8,47.2c11.5,17.1,21.3,35.2,29.3,54.2c8.1,19.3,14.3,39.4,18.5,59.9c8.6,42.4,8.6,86.2,0,128.6
		c-4.2,20.5-10.4,40.6-18.5,59.9c-8,19-17.8,37.1-29.3,54.2c-11.4,16.9-24.4,32.7-38.8,47.2c-14.4,14.5-30.1,27.5-47,39
		c-17,11.5-35.1,21.4-54,29.4c-19.2,8.2-39.2,14.4-59.6,18.6C388.5,637.3,367.1,639.5,345.6,639.5z M345.6,116.2
		c-111.9,0-202.9,91.6-202.9,204.3s91,204.3,202.9,204.3s202.9-91.6,202.9-204.3S457.5,116.2,345.6,116.2L345.6,116.2z"/>
	<path id="Subtração_1" class="st2" d="M317.6,639.5c-21.5,0-42.9-2.2-64-6.5c-20.4-4.2-40.4-10.4-59.6-18.6
		c-18.9-8-37-17.9-54-29.4c-16.9-11.5-32.6-24.5-47-39c-14.4-14.5-27.4-30.3-38.8-47.2c-11.5-17.1-21.3-35.2-29.3-54.2
		c-8.1-19.3-14.3-39.4-18.5-59.9c-8.6-42.4-8.6-86.2,0-128.6c4.2-20.5,10.4-40.6,18.5-59.9c8-19,17.8-37.1,29.3-54.2
		c11.4-16.9,24.4-32.7,38.8-47.2c14.4-14.5,30.1-27.5,47-39c17-11.5,35.1-21.4,54-29.4c19.2-8.2,39.2-14.4,59.6-18.6
		c42.2-8.6,85.8-8.6,128,0c20.4,4.2,40.4,10.4,59.6,18.6c18.9,8,37,17.9,53.9,29.4c16.9,11.5,32.6,24.5,47,39
		c14.4,14.5,27.4,30.3,38.8,47.2c11.5,17.1,21.3,35.2,29.3,54.2c8.1,19.3,14.3,39.4,18.5,59.9c8.6,42.4,8.6,86.2,0,128.6
		c-4.2,20.5-10.4,40.6-18.5,59.9c-8,19-17.8,37.1-29.3,54.2c-11.4,16.9-24.4,32.7-38.8,47.2c-14.4,14.5-30.1,27.5-47,39
		c-17,11.5-35.1,21.4-54,29.4c-19.2,8.2-39.2,14.4-59.6,18.6C360.5,637.3,339.1,639.5,317.6,639.5z M317.6,116.2
		c-111.9,0-202.9,91.6-202.9,204.3s91,204.3,202.9,204.3s202.9-91.6,202.9-204.3S429.5,116.2,317.6,116.2L317.6,116.2z"/>
	<g id="Grupo_33_1_" transform="translate(30.294 127.608)">
		<rect id="Retângulo_24-2_1_" x="307.5" y="-43.5" class="st0" width="232.4" height="3.9"/>
		<rect id="Retângulo_25-2_1_" x="307.5" y="-60.3" class="st0" width="232.4" height="3.9"/>
		<rect id="Retângulo_26-2_1_" x="307.5" y="-77.1" class="st0" width="232.4" height="3.9"/>
		<rect id="Retângulo_27-2_1_" x="307.5" y="-93.9" class="st0" width="232.4" height="3.9"/>
		<rect id="Retângulo_28-2_1_" x="307.5" y="-110.8" class="st0" width="232.4" height="3.9"/>
		<rect id="Retângulo_29-2_1_" x="307.5" y="-127.6" class="st0" width="232.4" height="3.9"/>
	</g>
	<g>
		<g>
			<circle class="st2" cx="867.5" cy="198.3" r="4.2"/>
			<circle class="st2" cx="883.9" cy="198.3" r="4.2"/>
			<circle class="st2" cx="900.3" cy="198.3" r="4.2"/>
			<circle class="st2" cx="916.6" cy="198.3" r="4.2"/>
			<circle class="st2" cx="933" cy="198.3" r="4.2"/>
			<circle class="st2" cx="949.4" cy="198.3" r="4.2"/>
			<circle class="st2" cx="965.7" cy="198.3" r="4.2"/>
			<circle class="st2" cx="982.1" cy="198.3" r="4.2"/>
		</g>
		<g>
			<circle class="st2" cx="867.5" cy="211.2" r="4.2"/>
			<circle class="st2" cx="883.9" cy="211.2" r="4.2"/>
			<circle class="st2" cx="900.3" cy="211.2" r="4.2"/>
			<circle class="st2" cx="916.6" cy="211.2" r="4.2"/>
			<circle class="st2" cx="933" cy="211.2" r="4.2"/>
			<circle class="st2" cx="949.4" cy="211.2" r="4.2"/>
			<circle class="st2" cx="965.7" cy="211.2" r="4.2"/>
			<circle class="st2" cx="982.1" cy="211.2" r="4.2"/>
		</g>
		<g>
			<g>
				<circle class="st2" cx="867.5" cy="224.1" r="4.2"/>
				<circle class="st2" cx="883.9" cy="224.1" r="4.2"/>
				<circle class="st2" cx="900.3" cy="224.1" r="4.2"/>
				<circle class="st2" cx="916.6" cy="224.1" r="4.2"/>
				<circle class="st2" cx="933" cy="224.1" r="4.2"/>
				<circle class="st2" cx="949.4" cy="224.1" r="4.2"/>
				<circle class="st2" cx="965.7" cy="224.1" r="4.2"/>
				<circle class="st2" cx="982.1" cy="224.1" r="4.2"/>
			</g>
		</g>
		<g>
			<g>
				<circle class="st2" cx="867.5" cy="237.1" r="4.2"/>
				<circle class="st2" cx="883.9" cy="237.1" r="4.2"/>
				<circle class="st2" cx="900.3" cy="237.1" r="4.2"/>
				<circle class="st2" cx="916.6" cy="237.1" r="4.2"/>
				<circle class="st2" cx="933" cy="237.1" r="4.2"/>
				<circle class="st2" cx="949.4" cy="237.1" r="4.2"/>
				<circle class="st2" cx="965.7" cy="237.1" r="4.2"/>
				<circle class="st2" cx="982.1" cy="237.1" r="4.2"/>
			</g>
		</g>
		<g>
			<circle class="st2" cx="867.5" cy="250" r="4.2"/>
			<circle class="st2" cx="883.9" cy="250" r="4.2"/>
			<circle class="st2" cx="900.3" cy="250" r="4.2"/>
			<circle class="st2" cx="916.6" cy="250" r="4.2"/>
			<circle class="st2" cx="933" cy="250" r="4.2"/>
			<circle class="st2" cx="949.4" cy="250" r="4.2"/>
			<circle class="st2" cx="965.7" cy="250" r="4.2"/>
			<circle class="st2" cx="982.1" cy="250" r="4.2"/>
		</g>
		<g>
			<circle class="st2" cx="867.5" cy="262.9" r="4.2"/>
			<circle class="st2" cx="883.9" cy="262.9" r="4.2"/>
			<circle class="st2" cx="900.3" cy="262.9" r="4.2"/>
			<circle class="st2" cx="916.6" cy="262.9" r="4.2"/>
			<circle class="st2" cx="933" cy="262.9" r="4.2"/>
			<circle class="st2" cx="949.4" cy="262.9" r="4.2"/>
			<circle class="st2" cx="965.7" cy="262.9" r="4.2"/>
			<circle class="st2" cx="982.1" cy="262.9" r="4.2"/>
		</g>
		<g>
			<g>
				<circle class="st2" cx="867.5" cy="275.9" r="4.2"/>
				<circle class="st2" cx="883.9" cy="275.9" r="4.2"/>
				<circle class="st2" cx="900.3" cy="275.9" r="4.2"/>
				<circle class="st2" cx="916.6" cy="275.9" r="4.2"/>
				<circle class="st2" cx="933" cy="275.9" r="4.2"/>
				<circle class="st2" cx="949.4" cy="275.9" r="4.2"/>
				<circle class="st2" cx="965.7" cy="275.9" r="4.2"/>
				<circle class="st2" cx="982.1" cy="275.9" r="4.2"/>
			</g>
		</g>
		<g>
			<g>
				<circle class="st2" cx="867.5" cy="288.8" r="4.2"/>
				<circle class="st2" cx="883.9" cy="288.8" r="4.2"/>
				<circle class="st2" cx="900.3" cy="288.8" r="4.2"/>
				<circle class="st2" cx="916.6" cy="288.8" r="4.2"/>
				<circle class="st2" cx="933" cy="288.8" r="4.2"/>
				<circle class="st2" cx="949.4" cy="288.8" r="4.2"/>
				<circle class="st2" cx="965.7" cy="288.8" r="4.2"/>
				<circle class="st2" cx="982.1" cy="288.8" r="4.2"/>
			</g>
		</g>
	</g>
</g>
</svg>
