<?xml version="1.0" encoding="utf-8"?>
<!-- Generator: Adobe Illustrator 24.1.1, SVG Export Plug-In . SVG Version: 6.00 Build 0)  -->
<!DOCTYPE svg PUBLIC "-//W3C//DTD SVG 1.1//EN" "http://www.w3.org/Graphics/SVG/1.1/DTD/svg11.dtd" [
	<!ENTITY ns_extend "http://ns.adobe.com/Extensibility/1.0/">
	<!ENTITY ns_ai "http://ns.adobe.com/AdobeIllustrator/10.0/">
	<!ENTITY ns_graphs "http://ns.adobe.com/Graphs/1.0/">
	<!ENTITY ns_vars "http://ns.adobe.com/Variables/1.0/">
	<!ENTITY ns_imrep "http://ns.adobe.com/ImageReplacement/1.0/">
	<!ENTITY ns_sfw "http://ns.adobe.com/SaveForWeb/1.0/">
	<!ENTITY ns_custom "http://ns.adobe.com/GenericCustomNamespace/1.0/">
	<!ENTITY ns_adobe_xpath "http://ns.adobe.com/XPath/1.0/">
]>
<svg version="1.1" id="Layer_1" xmlns:x="&ns_extend;" xmlns:i="&ns_ai;" xmlns:graph="&ns_graphs;"
	 xmlns="http://www.w3.org/2000/svg" xmlns:xlink="http://www.w3.org/1999/xlink" x="0px" y="0px" viewBox="0 0 85.4 43.4"
	 style="enable-background:new 0 0 85.4 43.4;" xml:space="preserve">
<style type="text/css">
	.st0{fill:#F3767A;}
	.st1{fill:#00A7DC;}
</style>
<metadata>
	<sfw  xmlns="&ns_sfw;">
		<slices></slices>
		<sliceSourceBounds  bottomLeftOrigin="true" height="43.4" width="85.4" x="31.3" y="-130"></sliceSourceBounds>
	</sfw>
</metadata>
<g>
	<path class="st0" d="M0,27.4V0h5.3v22.8h14v4.7H0z"/>
	<path class="st0" d="M12.8,37.4c0.4,0.3,1,0.5,1.8,0.9c0.9,0.3,1.8,0.5,2.9,0.5c1.1,0,1.9-0.2,2.6-0.6c0.6-0.4,1.1-0.9,1.5-1.7
		c0.3-0.8,0.6-1.7,0.7-2.9c0.1-1.1,0.2-2.5,0.2-4v-14h5.3v14c0,2.1-0.1,4-0.3,5.7c-0.2,1.7-0.7,3.2-1.4,4.4s-1.7,2.2-3.1,2.8
		c-1.3,0.7-3.1,1-5.4,1c-2.3,0-4.3-0.6-6-1.7L12.8,37.4z"/>
</g>
<path class="st1" d="M48.7,35.1l-2.1-2.2c-1.1,0.9-2.3,1.5-3.6,1.9c-1.3,0.4-2.6,0.7-4,0.7c-1.4,0-2.6-0.2-3.7-0.6
	c-1.1-0.4-2.1-1-2.8-1.7c-0.8-0.7-1.4-1.6-1.8-2.5c-0.4-1-0.6-2-0.6-3c0-0.8,0.1-1.6,0.4-2.3c0.3-0.7,0.6-1.3,1-1.9
	c0.4-0.6,0.9-1.1,1.5-1.6c0.6-0.5,1.2-1,1.8-1.4c-1.1-1.2-1.8-2.2-2.3-3.1c-0.4-0.9-0.7-1.8-0.7-2.7c0-1,0.2-1.8,0.6-2.6
	c0.4-0.8,0.9-1.5,1.5-2s1.4-1,2.3-1.3C37.1,8.1,38.1,8,39.2,8c0.9,0,1.8,0.1,2.7,0.4c0.9,0.3,1.6,0.6,2.3,1.1
	c0.7,0.5,1.2,1.1,1.6,1.8c0.4,0.7,0.6,1.6,0.6,2.6c0,1.5-0.4,2.7-1.3,3.8c-0.9,1.1-1.9,2.1-3.3,3.1l5.1,5.3c0.4-0.8,0.7-1.7,0.9-2.6
	c0.2-1,0.3-2,0.3-3.1h4.1c0,1.8-0.2,3.4-0.6,4.9c-0.4,1.5-1,2.8-1.7,4l5.5,5.8H48.7z M39.6,31.5c1.6,0,3-0.5,4.3-1.5l-6.2-6.5
	c-0.9,0.6-1.6,1.3-2.1,1.9c-0.5,0.7-0.8,1.4-0.8,2.2c0,0.5,0.1,1,0.3,1.5s0.5,0.9,1,1.3c0.4,0.4,0.9,0.6,1.5,0.8
	C38.3,31.4,38.9,31.5,39.6,31.5z M36.4,14.2c0,0.2,0,0.4,0.1,0.7c0.1,0.2,0.2,0.4,0.4,0.7c0.2,0.3,0.4,0.5,0.7,0.9
	c0.3,0.3,0.7,0.7,1.1,1.2c1-0.7,1.7-1.3,2.2-1.8c0.5-0.6,0.8-1.2,0.8-1.9c0-0.7-0.2-1.2-0.7-1.6c-0.5-0.4-1.1-0.6-1.8-0.6
	c-0.8,0-1.5,0.2-2,0.7C36.7,12.9,36.4,13.5,36.4,14.2z"/>
<path class="st0" d="M80.1,35.4V17.3L73,30.8h-2.9L63,17.3v18.2h-5.3V8h5.7l8.1,15.6L79.7,8h5.7v27.4H80.1z"/>
</svg>
