<?xml version="1.0" encoding="utf-8"?>
<!-- Generator: Adobe Illustrator 24.1.1, SVG Export Plug-In . SVG Version: 6.00 Build 0)  -->
<!DOCTYPE svg PUBLIC "-//W3C//DTD SVG 1.1//EN" "http://www.w3.org/Graphics/SVG/1.1/DTD/svg11.dtd" [
	<!ENTITY ns_extend "http://ns.adobe.com/Extensibility/1.0/">
	<!ENTITY ns_ai "http://ns.adobe.com/AdobeIllustrator/10.0/">
	<!ENTITY ns_graphs "http://ns.adobe.com/Graphs/1.0/">
	<!ENTITY ns_vars "http://ns.adobe.com/Variables/1.0/">
	<!ENTITY ns_imrep "http://ns.adobe.com/ImageReplacement/1.0/">
	<!ENTITY ns_sfw "http://ns.adobe.com/SaveForWeb/1.0/">
	<!ENTITY ns_custom "http://ns.adobe.com/GenericCustomNamespace/1.0/">
	<!ENTITY ns_adobe_xpath "http://ns.adobe.com/XPath/1.0/">
]>
<svg version="1.1" id="Layer_1" xmlns:x="&ns_extend;" xmlns:i="&ns_ai;" xmlns:graph="&ns_graphs;"
	 xmlns="http://www.w3.org/2000/svg" xmlns:xlink="http://www.w3.org/1999/xlink" x="0px" y="0px" viewBox="0 0 150 150"
	 style="enable-background:new 0 0 150 150;" xml:space="preserve">
<style type="text/css">
	.st0{fill:#F3767A;}
	.st1{fill:#00A7DC;}
	.st2{fill:none;stroke:#00A7DC;stroke-width:3;stroke-linejoin:round;stroke-miterlimit:10;}
</style>
<metadata>
	<sfw  xmlns="&ns_sfw;">
		<slices></slices>
		<sliceSourceBounds  bottomLeftOrigin="true" height="130.2" width="150" x="0" y="-142.5"></sliceSourceBounds>
	</sfw>
</metadata>
<g>
	<rect x="1.5" y="88.2" class="st0" width="109.6" height="2.9"/>
	<rect x="111.1" y="75" class="st0" width="37.4" height="2.9"/>
	<rect x="111.1" y="123.6" class="st0" width="37.4" height="2.9"/>
	<path class="st0" d="M90.2,126.6H50c-0.8,0-1.5-0.7-1.5-1.5v-17.7c0-0.8,0.7-1.5,1.5-1.5h40.2c0.8,0,1.5,0.7,1.5,1.5v17.7
		C91.7,125.9,91.1,126.6,90.2,126.6z M51.5,123.6h37.3v-14.8H51.5V123.6z"/>
	<path class="st1" d="M111.1,135.4H14.7c-0.8,0-1.5-0.7-1.5-1.5v-8.9c0-0.8,0.7-1.5,1.5-1.5h96.4c0.8,0,1.5,0.7,1.5,1.5v8.9
		C112.6,134.8,111.9,135.4,111.1,135.4z M16.2,132.5h93.5v-6H16.2V132.5z"/>
	<path class="st1" d="M150,76.5h-2.9v-6.2h-34.5v6.2h-2.9v-7.7c0-0.8,0.7-1.5,1.5-1.5h37.4c0.8,0,1.5,0.7,1.5,1.5V76.5z"/>
	<path class="st0" d="M129.8,137.9c-2.2,0-4-1.8-4-4c0-2.2,1.8-4,4-4c2.2,0,4,1.8,4,4C133.8,136.1,132,137.9,129.8,137.9z
		 M129.8,132.9c-0.6,0-1,0.5-1,1c0,0.6,0.5,1,1,1c0.6,0,1-0.5,1-1C130.9,133.4,130.4,132.9,129.8,132.9z"/>
	<path class="st1" d="M112.6,89.6h-2.9V68.8c0-0.8,0.7-1.5,1.5-1.5h26.3V15.2H2.9v74.4H0V13.7c0-0.8,0.7-1.5,1.5-1.5h137.3
		c0.8,0,1.5,0.7,1.5,1.5v55c0,0.8-0.7,1.5-1.5,1.5h-26.3V89.6z"/>
	<path class="st1" d="M111.1,108.8H1.5c-0.8,0-1.5-0.7-1.5-1.5V89.6h2.9v16.3h106.7V89.6h2.9v17.7
		C112.6,108.2,111.9,108.8,111.1,108.8z"/>
	<path class="st0" d="M70.1,104.5c-3.3,0-6-2.7-6-6s2.7-6,6-6s6,2.7,6,6S73.4,104.5,70.1,104.5z M70.1,95.4c-1.7,0-3.1,1.4-3.1,3.1
		c0,1.7,1.4,3.1,3.1,3.1c1.7,0,3.1-1.4,3.1-3.1C73.2,96.8,71.8,95.4,70.1,95.4z"/>
	<path class="st2" d="M111.1,134"/>
	<path class="st2" d="M111.1,125.1"/>
	<path class="st2" d="M111.1,107.4"/>
	<path class="st2" d="M111.1,107.4"/>
	<path class="st2" d="M111.1,89.6"/>
	<path class="st2" d="M111.1,134"/>
	<path class="st2" d="M111.1,125.1"/>
	<rect x="147.1" y="76.5" class="st1" width="2.9" height="48.6"/>
	<rect x="109.6" y="76.5" class="st1" width="2.9" height="48.6"/>
	<path class="st1" d="M148.5,142.5h-37.4c-0.8,0-1.5-0.7-1.5-1.5v-15.9h2.9v14.5h34.5v-14.5h2.9V141
		C150,141.8,149.3,142.5,148.5,142.5z"/>
</g>
</svg>
