<?xml version="1.0" encoding="utf-8"?>
<!-- Generator: Adobe Illustrator 24.1.1, SVG Export Plug-In . SVG Version: 6.00 Build 0)  -->
<!DOCTYPE svg PUBLIC "-//W3C//DTD SVG 1.1//EN" "http://www.w3.org/Graphics/SVG/1.1/DTD/svg11.dtd" [
	<!ENTITY ns_extend "http://ns.adobe.com/Extensibility/1.0/">
	<!ENTITY ns_ai "http://ns.adobe.com/AdobeIllustrator/10.0/">
	<!ENTITY ns_graphs "http://ns.adobe.com/Graphs/1.0/">
	<!ENTITY ns_vars "http://ns.adobe.com/Variables/1.0/">
	<!ENTITY ns_imrep "http://ns.adobe.com/ImageReplacement/1.0/">
	<!ENTITY ns_sfw "http://ns.adobe.com/SaveForWeb/1.0/">
	<!ENTITY ns_custom "http://ns.adobe.com/GenericCustomNamespace/1.0/">
	<!ENTITY ns_adobe_xpath "http://ns.adobe.com/XPath/1.0/">
]>
<svg version="1.1" id="Layer_1" xmlns:x="&ns_extend;" xmlns:i="&ns_ai;" xmlns:graph="&ns_graphs;"
	 xmlns="http://www.w3.org/2000/svg" xmlns:xlink="http://www.w3.org/1999/xlink" x="0px" y="0px" viewBox="0 0 150 150"
	 style="enable-background:new 0 0 150 150;" xml:space="preserve">
<style type="text/css">
	.st0{fill:#F3767A;}
	.st1{fill:#00A7DC;}
	.st2{fill:none;stroke:#00A7DC;stroke-width:3;stroke-linejoin:round;stroke-miterlimit:10;}
	.st3{fill:none;stroke:#F3767A;stroke-width:3;stroke-linejoin:round;stroke-miterlimit:10;}
</style>
<metadata>
	<sfw  xmlns="&ns_sfw;">
		<slices></slices>
		<sliceSourceBounds  bottomLeftOrigin="true" height="150" width="118" x="16" y="-150"></sliceSourceBounds>
	</sfw>
</metadata>
<g>
	<path class="st0" d="M85.9,45L83,44.2c0.1-0.4,2.6-8.9,10-13.3L82,8l0,11.9c1.7,0.9,2.8,2.8,2.8,4.8c0,3-2.4,5.4-5.4,5.4
		S74,27.7,74,24.7c0-2,1.1-3.8,2.8-4.8l0-11.9l-11,22.9c7.3,4.4,9.8,12.9,9.9,13.3L73,45c0-0.1-2.6-8.6-9.7-12.2
		c-0.7-0.4-1-1.2-0.7-1.9L77,0.8c0.3-0.6,1-1,1.6-0.8c0.3,0.1,0.6,0.2,0.8,0.4c0.2-0.2,0.5-0.4,0.8-0.4c0.7-0.2,1.4,0.2,1.6,0.8
		l14.4,30.1c0.3,0.7,0,1.6-0.7,1.9C88.4,36.4,85.9,44.9,85.9,45z M79.4,21.8c-0.2,0.2-0.4,0.4-0.7,0.5c-1,0.3-1.8,1.3-1.8,2.4
		c0,1.4,1.1,2.5,2.5,2.5c1.4,0,2.5-1.1,2.5-2.5c0-1.1-0.7-2.1-1.8-2.4C79.9,22.2,79.6,22,79.4,21.8z"/>
	<path class="st0" d="M115.4,60.7l-0.2-2.9c3.8-0.3,12.7-1.6,13.9-8.2c0.8-4.4,0.7-6.9,0.6-10.1c-0.2-3.4-0.4-7.2,0.5-14.1l2.9,0.4
		c-0.8,6.7-0.6,10.4-0.5,13.6c0.2,3.2,0.3,6-0.6,10.8C130.3,58.7,119.8,60.4,115.4,60.7z"/>
	<path class="st0" d="M105.3,54.9c-1.9-4-5.7-13.9,0.9-19.7c3.6-3.1,6.1-4.4,9-5.9c3.7-1.9,8-4.1,16.4-11.1c0.5-0.4,1.1-0.4,1.7-0.1
		c0.5,0.3,0.8,0.9,0.7,1.5c-0.4,2.2-0.7,4.2-0.9,6.1l-2.9-0.4c0.1-0.8,0.2-1.6,0.3-2.5c-6.8,5.3-10.7,7.4-14,9
		c-2.8,1.5-5.1,2.6-8.4,5.5c-5.1,4.4-1.8,12.8-0.2,16.2L105.3,54.9z"/>
	<path class="st0" d="M110.8,49.9c-0.4,0-0.8-0.2-1.1-0.5c-0.9-1-1.3-2.5-1-4.1c0.6-3.7,4.1-8.1,8.6-10.7
		c5.7-3.3,13.2-10.1,13.3-10.2c0.6-0.5,1.5-0.5,2.1,0.1c0.5,0.6,0.5,1.5-0.1,2.1c-0.3,0.3-7.9,7.1-13.8,10.5
		c-4.2,2.4-6.8,6.2-7.2,8.6c-0.1,0.5-0.1,1.2,0.3,1.7c0.5,0.6,0.5,1.5-0.1,2.1C111.5,49.8,111.1,49.9,110.8,49.9z"/>
	<path class="st1" d="M131.6,25.5"/>
	<path class="st1" d="M34.2,56.1l-3.5-6.1c-0.2-0.3-0.2-0.7-0.1-1.1c0.1-0.4,0.3-0.7,0.7-0.9l17.4-10c0.7-0.4,1.6-0.2,2,0.5l3.5,6.1
		l-2.5,1.5l-2.8-4.8L34,49.9l2.8,4.8L34.2,56.1z"/>
	<path class="st2" d="M37.8,37.8"/>
	<path class="st1" d="M43.4,34.6"/>
	<path class="st0" d="M28,44.9c-0.1,0-0.3,0-0.4-0.1c-0.4-0.1-0.7-0.4-0.9-0.7L16.2,24.9c-0.2-0.4-0.2-0.9-0.1-1.3
		c0.2-0.4,0.5-0.7,1-0.8l20.3-5c0.7-0.2,1.3,0.1,1.6,0.7l7.6,14.2c0.4,0.7,0.1,1.6-0.6,2l-17.4,10C28.5,44.9,28.3,44.9,28,44.9z
		 M19.7,25.2l8.9,16.2l14.8-8.6L37,21L19.7,25.2z"/>
	<rect x="59.7" y="43.2" transform="matrix(0.866 -0.5 0.5 0.866 -21.6766 38.5653)" class="st1" width="2.9" height="33.2"/>
	<rect x="88.7" y="108.6" transform="matrix(0.866 -0.5 0.5 0.866 -42.9676 59.8545)" class="st1" width="2.9" height="3"/>
	<rect x="50.2" y="51.1" transform="matrix(0.866 -0.5 0.5 0.866 -34.7829 36.9913)" class="st1" width="2.9" height="64.7"/>
	<path class="st1" d="M94.7,149.4c-3.1,0-6.2-1.3-8.4-3.7l2.2-2c2.7,2.9,7.1,3.6,10.6,1.6c2-1.1,3.4-3,4-5.2
		c0.6-2.2,0.3-4.5-0.9-6.5l-12.4-21.5l2.5-1.5l12.4,21.5c3.2,5.5,1.3,12.5-4.2,15.7C98.6,148.9,96.6,149.4,94.7,149.4z"/>
	<rect x="67.1" y="111.2" transform="matrix(0.8661 -0.5 0.5 0.8661 -47.2038 49.4093)" class="st1" width="2.9" height="3.2"/>
	<rect x="34.1" y="48.9" transform="matrix(0.866 -0.5001 0.5001 0.866 -19.2809 28.8326)" class="st1" width="20.1" height="2.9"/>
	<path class="st2" d="M89.5,114"/>
	<path class="st2" d="M91,111.4"/>
	<path class="st1" d="M92.2,112.1l-2.5-1.5l24.9-43.2l-0.7-7.3l-7.4-4.2l-6.7,3l-9.1,15.7l-2.5-1.5L97.5,57c0.2-0.3,0.4-0.5,0.7-0.6
		l7.8-3.5c0.4-0.2,0.9-0.2,1.3,0.1l8.7,5c0.4,0.2,0.7,0.7,0.7,1.1l0.9,8.6c0,0.3,0,0.6-0.2,0.9L92.2,112.1z"/>
	<path class="st1" d="M64,149.5c-2,0-3.9-0.5-5.7-1.5c-2.7-1.5-4.6-4-5.4-7c-0.8-3-0.4-6.1,1.1-8.7l12.5-21.6l2.5,1.5l-12.5,21.6
		c-2.4,4.1-1,9.3,3.1,11.7c3.5,2,8,1.3,10.7-1.8l2.2,1.9C70.4,148.2,67.2,149.5,64,149.5z"/>
	<rect x="105.9" y="52.8" transform="matrix(0.5 -0.866 0.866 0.5 -0.7241 124.4199)" class="st1" width="2.9" height="20.1"/>
	<path class="st1" d="M70.9,74.1h-2.9V51.6c0-0.3,0.1-0.6,0.3-0.9l5-7c0.3-0.4,0.7-0.6,1.2-0.6h10c0.5,0,0.9,0.2,1.2,0.6l5,7
		c0.2,0.2,0.3,0.5,0.3,0.9v22.3H88V52.1l-4.3-6h-8.5l-4.3,6V74.1z"/>
	<rect x="67.9" y="108.6" class="st1" width="2.9" height="5.6"/>
	<rect x="88" y="73.9" class="st1" width="2.9" height="35"/>
	<rect x="67.9" y="74.1" class="st1" width="2.9" height="34.5"/>
	<path class="st1" d="M70.4,145.6c-1.6-2-2.4-4.5-2.4-7v-24.3h2.9v24.3c0,1.9,0.6,3.7,1.8,5.2L70.4,145.6z"/>
	<path class="st1" d="M79.4,150c-3.6,0-6.9-1.6-9.1-4.4l2.3-1.8c1.6,2.1,4.1,3.3,6.8,3.3c2.6,0,5.1-1.2,6.7-3.3l2.3,1.8
		C86.3,148.4,83,150,79.4,150z"/>
	<rect x="88" y="108.8" class="st1" width="2.9" height="5.2"/>
	<path class="st1" d="M88.5,145.6l-2.3-1.8c1.2-1.5,1.8-3.4,1.8-5.3V114h2.9v24.5C90.9,141.1,90.1,143.6,88.5,145.6z"/>
	<rect x="69.4" y="50" class="st1" width="20.1" height="2.9"/>
	<path class="st3" d="M74.4,44.6"/>
	<path class="st3" d="M84.4,44.6"/>
	<path class="st1" d="M33.8,49.9l-5-8.6l15.1-8.7l5,8.6L33.8,49.9z M32.9,42.4l2,3.5l10-5.8l-2-3.5L32.9,42.4z"/>
</g>
</svg>
